<?xml version="1.0"?>
<svg xmlns:rdf="http://www.w3.org/1999/02/22-rdf-syntax-ns#" xmlns="http://www.w3.org/2000/svg" xmlns:cc="http://creativecommons.org/ns#" xmlns:dc="http://purl.org/dc/elements/1.1/" id="svg2" viewBox="0 0 572.55 614.16" version="1.1">
  <title id="title3441">Sapin (01) - Xmas - Black &amp; White</title>
  <g id="layer1" transform="translate(9.7969 -27.143)">
    <path id="path6922" stroke-linejoin="round" d="m300.41 0c-10.5-0.69347-15.7 30.672-24.6 36.281s-39.44-3.206-43.34 6.563 24.29 24.427 26.87 34.625c2.59 10.197-15.24 36.491-7.15 43.221 2.13 1.78 5.29 1.5 8.97 0.19-2.22 5.26-4.59 10.66-7.19 16.03-5.55 11.47-12.12 22.83-20.28 32.62-5.36 6.44-9.97 12.37-14.6 18.28-4.63 5.92-9.26 11.84-14.62 18.28-10.9 12.07-9.53 20.47-1.94 23.6 1.47 0.6 3.17 1.02 5.06 1.22-1.75 3.52-3.55 7.02-5.43 10.47-5.28 9.63-11.09 18.98-17.41 27.9-6.35 8.96-13.23 17.48-20.69 25.5 0.03 11.47 7.65 16.04 16.63 16.28 0.29 0.01 0.58 0 0.87 0-0.48 1.11-0.96 2.21-1.47 3.32-4.66 10.17-10.15 20.09-16.93 29.37-6.47 8.85-14.11 17.15-23.38 24.5-6.2 9.78 7.73 18.83 19.53 17.66-1.48 2.95-2.98 5.89-4.56 8.78-5.01 9.13-10.64 17.94-17.53 26.37-6.3 7.71-11.6 11.7-22.53 22.19-7.58 10.17-4.42 16.62 3.84 18.72 2.33 0.59 5.08 0.83 8.09 0.72-4.74 7.53-9.78 14.88-15.15 22-6.68 8.85-13.863 17.34-21.532 25.34-7.67 8-15.828 15.51-24.5 22.44-1.489 11.44 5.827 16.98 15.093 18.37 8.807 1.33 19.376-1.07 25.749-5.65 5.51-2.29 11.28-3.58 17.1-3.94l0.28 6.53c-7.96 0.52-14.25 7.1-14.25 15.19 0 8.43 6.82 15.25 15.25 15.25 8.42 0 15.25-6.82 15.25-15.25 0-8.28-6.59-14.99-14.82-15.22l0.19-6.59c4.06-0.12 8.13 0.22 12.13 0.96 10.34 1.95 20.21 6.7 28.18 13.79 9.64 6 20.39 7.75 31.22 7.12 10.81-0.63 21.7-3.63 31.66-7.15 8.78-1.22 17.31-0.01 25.78 2-0.24 2.42-0.55 4.75-0.87 7-0.3 1.97-0.62 3.88-0.97 5.78-0.87 4.56-1.9 8.99-3.13 13.62-1.56-0.06-3.12-0.12-4.72-0.12-20.09 0-37.85 5.32-48.62 13.5 11.48-5.55 27.09-8.94 44.31-8.94 18.27 0 34.74 3.84 46.37 10-7.27 1.56-13.92 2.93-21.21 3.53-5.4-0.05-11.28 0.72-16.16-2.06l-5 3.15c-1.86 6.82 32.81 0.29 36.78-0.65 7.32-1.09 14.42-3.2 21.53-5.19 11.36-3.08 21.28-5.96 36.1-4.91 10.69 0.98 13.74 2.36 26.03 5.03-4.16-2.37-8.64-4.15-13.19-5.65-6.22-2.36-12.87-3.35-19.5-3.06-0.46 0.01-0.92 0.03-1.38 0.06-0.37-3.89-0.67-7.72-0.93-11.53-0.12-1.71-0.22-3.4-0.31-5.1 0.09 1.7 0.19 3.4 0.31 5.1 8.76 3.54 17.47 6.89 26.31 9.9 11.1 3.79 22.41 7.07 34.31 9.63 11.13 2.39 22.78 4.15 35.25 5.12 12.02 1.08 23.01 1.57 33.56 1.69 11.47 0.13 22.44-0.18 33.63-0.66 10.75-0.45 21.73-1.06 33.59-1.56 8.98-0.3 17.35-0.86 24.44-1.53 16.87-1.58 26.43-3.67 19.38-3.75-10.85 0.21-21.58 0.48-32.25 0.72-10.79 0.24-21.52 0.44-32.25 0.59s-21.46 0.22-32.25 0.16c-10.67-0.06-21.41-0.24-32.25-0.63-10.99-0.61-21.47-1.87-31.6-3.68-10.65-1.91-20.91-4.45-30.9-7.56-10.14-3.17-20.02-6.91-29.78-11.19-6.42-3.09-13.04-5.52-19.79-7.41-0.16-3.32-0.29-6.64-0.4-9.94 0.92-0.37 1.84-0.72 2.78-1.06 7.77-2.85 15.8-4.62 24.53-2.97 9.71 0.38 19.25 3.81 28.81 6 9.6 2.2 19.21 3.14 28.91-1.47 8.75-2.68 16.57-8.37 24.69-12.96 5.31-3.01 10.76-5.53 16.65-6.44l0.19 4.53c-9.85 0.66-17.63 8.82-17.63 18.84 0 10.45 8.46 18.94 18.91 18.94s18.94-8.49 18.94-18.94c0-10.43-8.45-18.87-18.88-18.9l0.13-4.69c2.68-0.27 5.44-0.2 8.34 0.34 7.84 0.73 15.32 3.42 22.82 5.88 7.55 2.48 15.12 4.72 23.06 4.53 10.78-2.47 13.08-8.28 11.06-14.88-1.76-5.74-6.79-12.09-12.41-17.31-9.31-8.78-17.95-18.25-25.93-28.25-4.98-6.24-9.72-12.67-14.19-19.28 6.86 1.68 13.11 1.87 17.75 0.69 8.26-2.11 11.45-8.55 3.87-18.72-8.89-7.1-16.26-14.49-22.56-22.19-6.89-8.43-12.52-17.24-17.53-26.37-3.28-5.99-6.29-12.14-9.22-18.41 2.96 0.57 6.17 0.61 9.72-0.19 15.73-5.23 1.07-11.18-14.59-25.72-13.42-14.74-18.29-24.64-21.53-33.15-1.76-4.6-3.02-8.81-4.91-13.13 0.93-0.01 1.82-0.03 2.72-0.09 12.21-0.78 20.88-6.11 13.53-15.5-9.26-8.71-16.7-16.4-22.94-23.59-8.06-9.29-14.13-17.75-19.5-26.5-4.69-7.65-8.87-15.59-13.4-24.44 1.05-0.99 2.07-2.08 3.03-3.25 4.78-8.58 5.16-21.96-2.32-28.78-8.9-9.49-17.06-19.55-24.47-30.07-7.46-10.59-14.17-21.66-20.15-33.09-0.06-0.12-0.13-0.23-0.19-0.34 2.11 0.6 4 0.57 5.56-0.41 8.9-5.61-5.31-34.043-1.4-43.812 3.9-9.77 33.8-20.584 31.22-30.782-2.59-10.197-34.04-5.456-42.13-12.187-8.08-6.731-9.13-38.526-19.62-39.219zm-48 570.66c0.35-1.9 0.67-3.81 0.97-5.78-11.82 1.49-22.83 4.43-33.6 8.15-12.13 4.19-23.99 9.37-36.44 14.5-11.54 4.75-23.58 9.48-36.84 13.38-11.95 2.79-23.47 4.7-34.66 5.78-12.022 1.16-23.666 1.35-35.09 0.69-11.784-0.69-23.319-2.29-34.781-4.72-11.295-2.4-22.52-5.62-33.813-9.54-13.484 6.28-8.0289 10.07 1.094 12.54 7.882 2.13 18.513 3.28 22 4.25 11.578 1.56 23.373 2.84 35.25 3.56 11.803 0.71 23.672 0.89 35.44 0.19 11.84-0.71 23.59-2.28 35.06-5 11.43-2.72 22.62-6.6 33.34-11.91 11.79-5.27 24.01-10.27 36.54-14.56 12.42-4.26 25.14-7.82 37.96-10.25 2.52-0.48 5.04-0.9 7.57-1.28zm47.59-558.72c8.62 0.569 9.49 26.659 16.12 32.187 6.64 5.528 32.45 1.657 34.57 10.031 2.12 8.375-22.42 17.259-25.63 25.282-3.2 8.022 8.47 31.362 1.16 35.972-7.31 4.6-23.35-15.997-31.97-16.566-8.62-0.57-27.2 17.746-33.84 12.216s7.99-27.154 5.87-35.529c-2.12-8.374-25.3-20.383-22.09-28.406 3.2-8.023 28.28-0.8 35.59-5.406 7.31-4.607 11.6-30.351 20.22-29.781zm-7.59 93.872c0.35-0.02 0.7-0.02 1.03 0 5.94 0.4 14.77 8.62 22.94 14.66 2.14 4.43 4.41 8.8 6.81 13.12 5.51 9.95 11.71 19.57 18.59 28.79 6.78 9.07 14.22 17.76 22.34 25.96 0.03 0.05 0.07 0.09 0.1 0.13 2.89 2.5 4.33 6.25 4.53 10.37 0.19 4.07-0.9 8.39-2.81 11.69-8.08 9.26-19.99 11.37-29.63 3.81l-0.06-0.06c-0.01 0-0.02 0.01-0.03 0-4.81-4.13-11.26-5.36-18.44-4.94-7.11 0.42-15.07 2.43-23.47 4.97-8.42 0.4-11.71-1.94-15.81-4.65-4.13-2.73-9.11-5.8-18.75-5.28-0.11 0.01-0.21 0.03-0.31 0.06-8.04 1.72-11.82 3.18-14.75 5.06-2.9 1.86-4.73 3.81-9.38 6.69-10.91 4.91-20.77 4.97-24.9 2.43-2.08-1.26-2.9-2.76-2.57-5.37 0.34-2.61 2.24-6.4 6.57-10.94l0.06-0.06c4.91-5.58 9.15-10.68 13.37-15.78 4.25-5.13 8.46-10.26 13.35-15.81 6.95-7.9 12.63-16.9 17.47-26.04 5.16-9.75 9.36-19.66 13.12-28.53 0.1-0.23 0.18-0.45 0.28-0.68 7.44-4.34 15.12-9.28 20.35-9.6zm26.47 16.44c0.54 0.38 1.08 0.72 1.62 1.06-0.53-0.33-1.09-0.69-1.62-1.06zm3.87 2.41c0.42 0.22 0.84 0.46 1.25 0.65-0.41-0.2-0.83-0.42-1.25-0.65zm-65.03 87.81c8.73-0.11 13 2.77 17.19 5.69 4.55 3.17 9 6.4 18.93 5.87 8.02-2.57 15.62-4.61 22.41-5.44 1.56-0.18 3.06-0.32 4.53-0.37l0.16 3.97c-7.96 0.51-14.25 7.1-14.25 15.19 0 8.42 6.82 15.24 15.25 15.24 8.42 0 15.25-6.82 15.25-15.24 0-8.28-6.59-14.99-14.81-15.22l0.09-3.94c6.24 0.03 11.57 1.51 15.59 5.22 5.84 4.88 12.51 6.6 18.91 5.59 1.86-0.29 3.68-0.82 5.47-1.56 3.52 6.75 6.96 12.99 10.75 19.09 4.98 8.03 10.6 15.86 18.03 24.41 5.8 6.67 12.69 13.78 21.19 21.78 1.22 1.59 1.76 2.92 1.9 3.87 0.15 0.98-0.01 1.63-0.5 2.35-0.98 1.44-3.81 3-7.78 3.78-7.93 1.57-19.87 0.28-28.03-4l-0.03-0.03c-9.11-4.59-19.2-6.07-28.97-4.81-9.76 1.25-19.19 5.23-27.03 11.56-8.55 4.81-17.94 5.75-27.38 4.53-9.18-1.19-18.4-4.43-26.93-8.16h-0.07c-9.61-3.91-18.23-10.71-27.97-14.18-9.73-3.48-20.78-3.12-33.53 7.03l-0.15 0.15c-4.66 4.52-13.76 7.97-21.16 7.63-3.7-0.17-6.91-1.22-9.12-3.19-2.08-1.84-3.42-4.56-3.6-8.78 6.79-7.37 13.08-15.21 18.88-23.41 5.78-8.17 11.09-16.69 15.94-25.5 1.87-3.4 3.35-7.01 4.84-10.62 3.17-0.14 6.7-0.79 10.44-1.94l0.15 4c-7.96 0.52-14.28 7.1-14.28 15.19 0 8.43 6.86 15.28 15.28 15.28 8.43 0 15.25-6.85 15.25-15.28 0-8.28-6.59-14.99-14.81-15.22l0.13-4.53c2.01-0.7 4.08-1.53 6.18-2.53 10.79-7 8.48-9.48 25.85-13.41 0.62-0.03 1.23-0.05 1.81-0.06zm64.22 11.75c7.27 0 13.15 5.88 13.15 13.16 0 7.27-5.88 13.18-13.15 13.18-7.28 0-13.16-5.91-13.16-13.18 0-7.28 5.88-13.16 13.16-13.16zm-2.94 2.78c-1.2-0.08-2.53 0.25-3.75 1s-2.11 1.77-2.59 2.88c-0.48 1.1-0.54 2.32 0.06 3.31s1.71 1.51 2.9 1.59c1.2 0.08 2.53-0.25 3.76-1 1.22-0.74 2.11-1.77 2.59-2.87s0.54-2.33-0.06-3.32-1.71-1.51-2.91-1.59zm-0.09 1.22c0.9 0.06 1.6 0.41 1.97 1 0.36 0.59 0.36 1.38 0 2.22-0.37 0.83-1.1 1.68-2.13 2.31s-2.12 0.9-3.03 0.84-1.61-0.43-1.97-1.03c-0.36-0.59-0.36-1.35 0-2.18 0.36-0.84 1.1-1.72 2.13-2.35 1.02-0.62 2.12-0.87 3.03-0.81zm-95.6 6.84c7.28 0 13.16 5.89 13.16 13.16s-5.88 13.19-13.16 13.19c-7.27 0-13.19-5.92-13.19-13.19s5.92-13.16 13.19-13.16zm-2.93 2.78c-1.2-0.08-2.53 0.29-3.76 1.04-1.22 0.74-2.11 1.74-2.59 2.84s-0.54 2.32 0.06 3.31 1.71 1.52 2.91 1.59c1.2 0.08 2.53-0.25 3.75-1 1.22-0.74 2.11-1.77 2.59-2.87s0.51-2.32-0.09-3.31-1.68-1.52-2.87-1.6zm-0.1 1.22c0.91 0.06 1.58 0.41 1.94 1 0.36 0.6 0.36 1.39 0 2.22-0.36 0.84-1.1 1.69-2.13 2.31-1.02 0.63-2.12 0.91-3.03 0.85-0.9-0.06-1.57-0.44-1.94-1.03-0.36-0.6-0.36-1.36 0-2.19 0.37-0.84 1.1-1.69 2.13-2.31 1.03-0.63 2.12-0.91 3.03-0.85zm6.41 53.85c0.44-0.01 0.87-0.01 1.31 0 3.16 0.07 6.24 0.68 9.22 1.65 5.77 1.88 11.32 5.1 17.03 8.38l0.34 8.12c-7.97 0.5-14.28 7.09-14.28 15.19 0 8.43 6.83 15.25 15.25 15.25 8.43 0 15.28-6.82 15.28-15.25 0-8.28-6.62-14.99-14.84-15.22l0.19-7c3.91 2.22 7.91 4.4 12.15 6.13 9.4 4.1 19.7 7.72 30.07 9 10.41 1.27 20.9 0.17 30.53-5.25 8.06-6.6 17.81-10.77 27.87-12.1 4.72-0.62 9.51-0.62 14.22 0.03l0.44 10.38c-9.84 0.67-17.63 8.83-17.63 18.84 0 10.45 8.49 18.94 18.94 18.94s18.91-8.49 18.91-18.94c0-10.44-8.44-18.89-18.88-18.9l0.25-9.97c4.68 0.84 9.26 2.33 13.63 4.53 4.04 2.12 8.79 3.59 13.59 4.44 1.41 3.1 2.44 6.14 3.63 9.46 1.96 5.52 4.29 11.68 9.21 19.38 3.16 4.93 7.37 10.47 13.22 16.91 0.05 0.05 0.11 0.1 0.16 0.15 7.65 7.1 15.05 12.22 18.03 15.44 0.75 0.81 1.17 1.48 1.31 1.81 0.05 0.12 0.06 0.14 0.07 0.16-0.07 0.02-1.15 1.11-4.25 2.19-6.97 1.53-12.06-0.71-17.66-3.57-5.62-2.87-11.69-6.51-19.41-5.59-0.13 0.01-0.27 0.03-0.4 0.06-4.45 1.19-7.46 3.79-9.28 6.72-1.83 2.94-2.64 6.07-3.44 8.84-0.8 2.78-1.62 5.17-2.91 6.79-1.24 1.56-2.94 2.65-6.37 3.12-9.6-1.3-18.37-4.49-26.97-8.31-8.54-3.79-16.9-8.19-25.69-11.97-0.08-0.04-0.17-0.08-0.25-0.13-7.93-4.22-17.36-7-26.9-7.59-9.42-0.58-18.96 0.98-27.29 5.41-0.09 0.04-0.19 0.1-0.28 0.15-5.6 3.89-12.7 5.06-20.06 4.63-6.96-0.41-14.14-2.25-20.44-4.53v0.03c-11.28-5.21-24.72-7.28-37.53-4.44l-0.12 0.03c-11.14 1.98-21.1 6.48-30.07 11.44-4.77 1.55-11.33 0.33-15.53-2.37-2.11-1.37-3.57-3.03-4.15-4.57-0.57-1.47-0.5-2.86 0.59-4.69 8.68-6.98 15.89-14.78 22-23.09 6.43-8.74 11.66-18.03 16.09-27.56 0.79-1.68 1.55-3.37 2.29-5.06 6.5-1.28 12.87-4.34 16.93-8.29 8.17-6.49 15.28-9.05 21.88-9.21zm28.87 20.18c7.28 0 13.19 5.89 13.19 13.16s-5.91 13.19-13.19 13.19c-7.27 0-13.15-5.92-13.15-13.19s5.88-13.16 13.15-13.16zm117.22 1.66c9.02 0 16.31 7.29 16.31 16.31s-7.29 16.35-16.31 16.35-16.34-7.33-16.34-16.35 7.32-16.31 16.34-16.31zm-120.16 1.13c-1.19-0.08-2.49 0.25-3.71 1-1.23 0.74-2.15 1.77-2.63 2.87s-0.51 2.32 0.1 3.31c0.6 0.99 1.67 1.52 2.87 1.6s2.53-0.26 3.75-1c1.22-0.75 2.11-1.78 2.59-2.88s0.54-2.32-0.06-3.31-1.71-1.52-2.91-1.59zm-0.06 1.21c0.91 0.06 1.58 0.41 1.94 1 0.36 0.6 0.36 1.39 0 2.22-0.36 0.84-1.1 1.69-2.12 2.31-1.03 0.63-2.13 0.91-3.04 0.85-0.9-0.06-1.57-0.44-1.93-1.03-0.36-0.6-0.4-1.35-0.03-2.19 0.36-0.84 1.13-1.72 2.15-2.34 1.03-0.63 2.13-0.88 3.03-0.82zm116.56 1.13c-1.48-0.1-3.1 0.32-4.62 1.25-1.52 0.92-2.66 2.2-3.25 3.56-0.59 1.37-0.65 2.87 0.09 4.09 0.75 1.23 2.11 1.88 3.6 1.97 1.48 0.1 3.14-0.32 4.65-1.25 1.52-0.92 2.63-2.19 3.22-3.56 0.6-1.36 0.65-2.86-0.09-4.09-0.75-1.23-2.11-1.87-3.6-1.97zm-0.09 1.5c1.13 0.07 1.96 0.51 2.41 1.25 0.44 0.73 0.45 1.68 0 2.72-0.45 1.03-1.36 2.1-2.63 2.87-1.27 0.78-2.65 1.11-3.78 1.03-1.12-0.07-1.96-0.51-2.41-1.25-0.44-0.73-0.45-1.68 0-2.72 0.46-1.03 1.39-2.09 2.66-2.87s2.63-1.11 3.75-1.03zm-67.78 52.09c1.19 0.01 2.37 0.05 3.56 0.13 5.55 0.36 11.06 1.49 16.25 3.18l0.28 6.29c-7.97 0.5-14.28 7.08-14.28 15.18 0 8.43 6.83 15.25 15.25 15.25 8.43 0 15.25-6.82 15.25-15.25 0-8.28-6.59-14.98-14.81-15.21l0.16-5.63c3.08 1.1 6.05 2.39 8.81 3.87 9.31 3.99 18.29 8.81 27.62 12.94 9.14 4.04 18.62 7.43 29.1 8.78 17.86-2.11 7.78-22.61 23.81-26.9 7.13-0.85 12.9 2.65 19.06 5.78 3.41 7.43 6.93 14.74 10.88 21.84 4.78 8.63 10.18 16.99 16.75 25.03 6 7.36 12.97 14.44 21.34 21.22 2.65 3.65 3.38 6.34 3.25 7.78-0.13 1.48-0.73 2.3-2.65 3.25-3.83 1.9-12.83 2.04-22.57-1.37l-0.06-0.03c-8.19-3.36-17.09-8.66-26.66-12.25-9.58-3.61-20.19-5.44-31-1.07-0.08 0.04-0.16 0.09-0.25 0.13-8.09 3.99-14.99 10.11-21.9 14.59-6.82 4.43-13.29 7.2-21.03 6-9.01-3.58-17.48-8.74-26.25-13.84-0.21-0.12-0.43-0.23-0.66-0.31-8.77-3.1-17.82-9.19-28.31-11.81-0.03-0.01-0.06-0.03-0.1-0.04-11.3-3.1-21.33 0.6-30.12 5.35-8.71 4.71-16.68 10.39-24.59 12.97-7.78 1.21-14.28-1.56-21.13-6-6.92-4.49-13.81-10.61-21.91-14.6-0.08-0.04-0.16-0.08-0.25-0.12-10.8-4.37-21.41-2.54-31 1.06-9.56 3.59-18.46 8.89-26.65 12.25l-0.06 0.03c-9.74 3.41-18.74 3.28-22.57 1.38-1.93-0.96-2.52-1.8-2.65-3.28-0.13-1.45 0.6-4.14 3.25-7.79 8.36-6.77 15.34-13.84 21.34-21.18 6.56-8.04 11.96-16.39 16.75-25 2.24-4.04 4.32-8.14 6.34-12.29 7-3.53 14.48-6.56 22.54-8.34l0.37 8.6c-7.96 0.51-14.25 7.09-14.25 15.18 0 8.43 6.82 15.25 15.25 15.25s15.25-6.82 15.25-15.25c0-8.28-6.59-14.98-14.81-15.22l0.25-8.96c0.34-0.07 0.68-0.16 1.03-0.22 12.82-2.88 26.46-0.8 37.81 4.5 6.93 2.51 14.93 4.6 22.81 5 8.03 0.4 15.94-0.96 22.41-5.44 7.19-3.83 15.43-5.48 23.75-5.41zm21.06 11.63c7.28 0 13.16 5.88 13.16 13.15 0 7.28-5.88 13.16-13.16 13.16-7.27 0-13.15-5.88-13.15-13.16 0-7.27 5.88-13.15 13.15-13.15zm-129.56 0.97c7.27 0 13.16 5.88 13.16 13.15 0 7.28-5.89 13.16-13.16 13.16s-13.16-5.88-13.16-13.16c0-7.27 5.89-13.15 13.16-13.15zm126.63 1.81c-1.2-0.08-2.5 0.25-3.72 1-1.23 0.74-2.15 1.77-2.63 2.87s-0.54 2.33 0.06 3.32 1.71 1.51 2.91 1.59 2.53-0.25 3.75-1 2.11-1.77 2.59-2.88c0.48-1.1 0.54-2.32-0.06-3.31s-1.71-1.51-2.9-1.59zm-129.57 0.97c-1.19-0.08-2.49 0.25-3.72 1-1.22 0.74-2.14 1.77-2.62 2.87s-0.54 2.32 0.06 3.32c0.6 0.99 1.71 1.51 2.91 1.59 1.19 0.08 2.53-0.26 3.75-1 1.22-0.75 2.11-1.78 2.59-2.88s0.54-2.32-0.06-3.31-1.71-1.51-2.91-1.59zm128.78 0.25c0.25-0.03 0.46-0.02 0.69 0 0.91 0.06 1.61 0.4 1.97 1 0.36 0.59 0.36 1.38 0 2.22-0.36 0.83-1.1 1.68-2.13 2.31-1.02 0.62-2.12 0.87-3.03 0.81-0.9-0.06-1.57-0.41-1.93-1s-0.4-1.35-0.04-2.19c0.37-0.83 1.14-1.71 2.16-2.34 0.77-0.47 1.58-0.74 2.31-0.81zm-129.56 0.97c0.25-0.03 0.46-0.02 0.69 0 0.91 0.06 1.61 0.4 1.97 1 0.36 0.59 0.36 1.38 0 2.21-0.37 0.84-1.1 1.69-2.13 2.32-1.02 0.62-2.12 0.87-3.03 0.81s-1.61-0.41-1.97-1-0.36-1.35 0-2.19c0.37-0.83 1.13-1.72 2.16-2.34 0.77-0.47 1.57-0.74 2.31-0.81zm-2.94 54.93c4.32-0.09 8.7 0.57 13.13 2.35 7.7 3.77 14.72 9.93 22.22 14.78 7.57 4.9 15.62 8.47 25.18 6.87 8.14-2.56 15.75-7.66 23.5-12.09l0.19 4.84c-7.96 0.52-14.25 7.13-14.25 15.22 0 8.43 6.83 15.25 15.25 15.25 8.43 0 15.25-6.82 15.25-15.25 0-8.28-6.59-15.01-14.81-15.25l0.16-5.81c0.38-0.21 0.76-0.45 1.15-0.66 8.89-4.79 18.11-8.16 28.63-5.25 9.99 2.47 19.36 8.71 29.19 12.16 9.22 5.33 18.33 10.93 28.34 14.81 9.57 1.6 17.58-1.97 25.16-6.87 6.63-4.3 12.93-9.6 19.62-13.38l0.19 3.82c-9.84 0.67-17.63 8.83-17.63 18.84 0 10.45 8.49 18.94 18.94 18.94s18.91-8.49 18.91-18.94c0-10.44-8.44-18.89-18.88-18.91l0.13-4.65c0.32-0.17 0.64-0.34 0.96-0.5 10.12-4.07 19.95-2.38 29.5 1.22 7.47 2.81 14.76 6.75 21.88 10.09 4.71 5.3 9.98 11.06 15.19 18.84 7.52 9.57 15.66 18.63 24.43 27.07 0.02 0.01 0.03 0.02 0.04 0.03 5.5 5.22 10.23 11.78 11.28 16.56 0.52 2.39 0.28 4.11-0.85 5.65-1.1 1.51-3.42 3.01-7.62 4.04-7.09 0.08-14.1-2.22-21.41-4.66-6.75-2.26-13.74-4.63-21.28-5.38-0.09-0.01-0.16-0.01-0.25-0.03-10.26-1.85-19.05 1.87-26.94 6.41-7.95 4.58-15.31 9.99-23.03 12.41-0.13 0.04-0.25 0.09-0.37 0.15-8.4 4.07-16.62 3.28-25.5 1.22s-18.17-5.48-28.03-5.87v0.03c-8.62-1.57-16.45 0.08-23.82 2.75-7.84 2.83-15.17 6.82-22.37 9.37-12.22 2.69-24.14-0.36-36.53-3.94-12.44-3.58-25.31-7.66-39.1-5.71-0.19 0.02-0.38 0.06-0.56 0.12-9.2 3.33-19.07 6.1-28.78 6.75-9.99 0.67-19.8-0.91-28.47-6.4-0.01-0.01-0.02-0.03-0.03-0.04-7.97-7.1-17.75-11.88-28.03-13.81-10.29-1.93-21.08-1.03-31.03 3.19-0.2 0.09-0.39 0.21-0.56 0.34-5.37 3.93-15.343 6.2-22.942 4.85-3.8-0.68-6.926-2.19-8.907-4.44-1.829-2.08-2.828-4.88-2.5-9.06 8.065-6.65 15.645-13.85 22.779-21.47 7.13-7.62 13.83-15.67 20.07-24.06 4.43-5.98 8.63-12.12 12.62-18.41 2.17-0.5 4.42-1.17 6.69-1.97 7.39-3.01 14.97-7.26 22.75-10.66l0.37 9.28c-9.82 0.69-17.59 8.85-17.59 18.85 0 10.45 8.48 18.94 18.94 18.94 10.45 0 18.9-8.49 18.9-18.94 0-10.44-8.44-18.89-18.87-18.91l0.28-10.06c0.9-0.37 1.81-0.75 2.72-1.09 5.37-2.03 10.85-3.44 16.4-3.57zm-19.43 17.32c9.02 0 16.31 7.29 16.31 16.31s-7.29 16.34-16.31 16.34-16.35-7.32-16.35-16.34 7.33-16.31 16.35-16.31zm238.84 0.75c9.02 0 16.31 7.29 16.31 16.31s-7.29 16.34-16.31 16.34-16.34-7.32-16.34-16.34 7.32-16.31 16.34-16.31zm-134.19 0.71c7.28 0 13.16 5.92 13.16 13.19 0 7.28-5.88 13.16-13.16 13.16-7.27 0-13.15-5.88-13.15-13.16 0-7.27 5.88-13.19 13.15-13.19zm-108.31 2c-1.48-0.09-3.11 0.33-4.62 1.26-1.52 0.92-2.66 2.16-3.26 3.53-0.59 1.36-0.65 2.89 0.1 4.12 0.74 1.23 2.11 1.87 3.59 1.97 1.49 0.1 3.14-0.33 4.66-1.25 1.51-0.92 2.62-2.2 3.22-3.56 0.59-1.37 0.65-2.87-0.1-4.1-0.74-1.22-2.11-1.87-3.59-1.97zm237.72 0.76c-1.16 0.11-2.36 0.52-3.5 1.21-1.52 0.93-2.66 2.2-3.25 3.57-0.6 1.36-0.65 2.89 0.09 4.12 0.75 1.23 2.11 1.87 3.6 1.97 1.48 0.1 3.14-0.33 4.65-1.25 1.52-0.92 2.63-2.2 3.22-3.56 0.6-1.37 0.65-2.87-0.09-4.1-0.75-1.22-2.11-1.87-3.6-1.96-0.37-0.03-0.74-0.04-1.12 0zm-133.25 0.06c-0.93 0.09-1.93 0.44-2.85 1-1.22 0.74-2.11 1.77-2.59 2.87s-0.54 2.29 0.06 3.28 1.71 1.55 2.91 1.63 2.53-0.29 3.75-1.03c1.22-0.75 2.11-1.75 2.59-2.85s0.54-2.32-0.06-3.31-1.71-1.51-2.9-1.59c-0.3-0.02-0.6-0.03-0.91 0zm-105.47 0.68c0.31-0.03 0.63-0.01 0.91 0 1.12 0.08 1.96 0.52 2.4 1.26 0.45 0.73 0.45 1.68 0 2.71-0.45 1.04-1.35 2.1-2.62 2.88-1.27 0.77-2.66 1.1-3.78 1.03-1.13-0.07-1.96-0.51-2.41-1.25s-0.45-1.68 0-2.72c0.45-1.03 1.38-2.1 2.66-2.87 0.95-0.59 1.92-0.94 2.84-1.04zm105.59 0.54c0.25-0.03 0.46-0.02 0.69 0 0.91 0.06 1.61 0.4 1.97 1 0.36 0.59 0.36 1.35 0 2.18-0.36 0.84-1.1 1.69-2.13 2.32-1.02 0.62-2.12 0.9-3.03 0.84-0.9-0.06-1.6-0.44-1.97-1.03-0.36-0.59-0.36-1.35 0-2.19 0.37-0.83 1.14-1.69 2.16-2.31 0.77-0.47 1.58-0.74 2.31-0.81zm133.29 0.22c0.3-0.04 0.59-0.02 0.87 0 1.12 0.07 1.96 0.51 2.41 1.24 0.44 0.74 0.45 1.69 0 2.72-0.45 1.04-1.36 2.1-2.63 2.88-1.27 0.77-2.66 1.1-3.78 1.03s-1.96-0.51-2.41-1.25c-0.44-0.74-0.45-1.68 0-2.72 0.45-1.03 1.39-2.13 2.66-2.9 0.95-0.59 1.96-0.91 2.88-1zm55.65 79.12c9.02 0 16.35 7.29 16.35 16.31s-7.33 16.35-16.35 16.35-16.31-7.33-16.31-16.35 7.29-16.31 16.31-16.31zm-4.78 3.47c-1.16 0.12-2.36 0.52-3.5 1.22-1.52 0.92-2.62 2.19-3.22 3.56-0.59 1.37-0.65 2.87 0.09 4.09 0.75 1.23 2.12 1.91 3.6 2 1.48 0.1 3.11-0.32 4.62-1.25 1.52-0.92 2.66-2.19 3.25-3.56 0.6-1.36 0.66-2.9-0.09-4.12-0.75-1.23-2.11-1.84-3.59-1.94-0.37-0.03-0.77-0.04-1.16 0zm-327.09 0.84c7.27 0 13.15 5.89 13.15 13.16s-5.88 13.15-13.15 13.15c-7.28 0-13.16-5.88-13.16-13.15s5.88-13.16 13.16-13.16zm327.25 0.66c0.3-0.03 0.59-0.02 0.87 0 1.13 0.07 1.99 0.48 2.44 1.22 0.45 0.73 0.45 1.71 0 2.75-0.45 1.03-1.39 2.1-2.66 2.87-1.27 0.78-2.62 1.11-3.75 1.03-1.12-0.07-1.96-0.54-2.4-1.28-0.45-0.73-0.45-1.68 0-2.72 0.45-1.03 1.35-2.1 2.62-2.87 0.95-0.58 1.96-0.91 2.88-1zm-330.19 2.12c-1.2-0.08-2.53 0.26-3.75 1-1.22 0.75-2.12 1.78-2.59 2.88-0.48 1.1-0.54 2.32 0.06 3.31s1.71 1.52 2.9 1.6c1.2 0.07 2.53-0.26 3.75-1 1.23-0.75 2.12-1.78 2.6-2.88s0.54-2.32-0.07-3.31c-0.6-0.99-1.71-1.52-2.9-1.6zm-0.81 1.22c0.24-0.02 0.49-0.01 0.71 0 0.91 0.06 1.61 0.41 1.97 1 0.36 0.6 0.37 1.39 0 2.22-0.36 0.84-1.1 1.69-2.12 2.31-1.03 0.63-2.16 0.88-3.06 0.82-0.91-0.06-1.58-0.41-1.94-1-0.36-0.6-0.36-1.36 0-2.19 0.36-0.84 1.1-1.72 2.12-2.35 0.77-0.46 1.58-0.73 2.32-0.81zm136.56 4.88c8 2.06 15.96 4.65 24 6.37 8.79 1.89 17.7 2.73 26.87 0.72 5.49-1.88 10.87-4.41 16.32-6.75 0.3 9.97 0.76 20 1.72 30.35-11.42 1.41-22.32 5.6-33.54 8.03-9.24-6.86-23.44-11.66-39.78-12.91 2.14-8.29 3.68-15.98 4.41-25.81z" transform="translate(-9.7969 27.143)" stroke="#000" stroke-linecap="square" stroke-width=".033"/>
  </g>
  <metadata>
    <rdf:RDF>
      <cc:Work>
        <dc:format>image/svg+xml</dc:format>
        <dc:type rdf:resource="http://purl.org/dc/dcmitype/StillImage"/>
        <cc:license rdf:resource="http://creativecommons.org/licenses/publicdomain/"/>
        <dc:publisher>
          <cc:Agent rdf:about="http://openclipart.org/">
            <dc:title>Openclipart</dc:title>
          </cc:Agent>
        </dc:publisher>
      </cc:Work>
      <cc:License rdf:about="http://creativecommons.org/licenses/publicdomain/">
        <cc:permits rdf:resource="http://creativecommons.org/ns#Reproduction"/>
        <cc:permits rdf:resource="http://creativecommons.org/ns#Distribution"/>
        <cc:permits rdf:resource="http://creativecommons.org/ns#DerivativeWorks"/>
      </cc:License>
    </rdf:RDF>
  </metadata>
</svg>
